<svg xmlns="http://www.w3.org/2000/svg" width="400" height="200" viewBox="0 0 400 200">
  <!-- 背景 -->
  <rect width="100%" height="100%" fill="#151520" />
  
  <!-- 网格背景 -->
  <path d="M0,40 L400,40 M0,80 L400,80 M0,120 L400,120 M0,160 L400,160" stroke="#00ffff" stroke-width="0.5" stroke-opacity="0.2" />
  <path d="M40,0 L40,200 M80,0 L80,200 M120,0 L120,200 M160,0 L160,200 M200,0 L200,200 M240,0 L240,200 M280,0 L280,200 M320,0 L320,200 M360,0 L360,200" stroke="#00ffff" stroke-width="0.5" stroke-opacity="0.2" />
  
  <!-- 霓虹几何形状 -->
  <polygon points="70,60 120,40 170,60 170,140 120,160 70,140" fill="none" stroke="#ff00ff" stroke-width="2" />
  <circle cx="260" cy="100" r="50" fill="none" stroke="#00ff00" stroke-width="2" />
  <path d="M240,70 L280,70 M240,100 L280,100 M240,130 L280,130" stroke="#00ffff" stroke-width="2" />
  
  <!-- 文字 - 只保留PROJECT 1 -->
  <text x="200" y="100" text-anchor="middle" fill="#ffffff" font-family="monospace" font-size="24" font-weight="bold">PROJECT 1</text>
  
  <!-- 装饰性元素 -->
  <path d="M10,10 L40,10 L40,20" fill="none" stroke="#ff00ff" stroke-width="2" />
  <path d="M390,10 L360,10 L360,20" fill="none" stroke="#ff00ff" stroke-width="2" />
  <path d="M10,190 L40,190 L40,180" fill="none" stroke="#ff00ff" stroke-width="2" />
  <path d="M390,190 L360,190 L360,180" fill="none" stroke="#ff00ff" stroke-width="2" />
  
  <!-- 闪光效果 -->
  <circle cx="70" cy="60" r="3" fill="#ff00ff" />
  <circle cx="170" cy="60" r="3" fill="#ff00ff" />
  <circle cx="70" cy="140" r="3" fill="#ff00ff" />
  <circle cx="170" cy="140" r="3" fill="#ff00ff" />
  <circle cx="120" cy="40" r="3" fill="#ff00ff" />
  <circle cx="120" cy="160" r="3" fill="#ff00ff" />
  <circle cx="260" cy="50" r="3" fill="#00ff00" />
  <circle cx="260" cy="150" r="3" fill="#00ff00" />
  <circle cx="210" cy="100" r="3" fill="#00ff00" />
  <circle cx="310" cy="100" r="3" fill="#00ff00" />
</svg> 